<svg xmlns="http://www.w3.org/2000/svg" xmlns:xlink="http://www.w3.org/1999/xlink" preserveAspectRatio="xMidYMid" width="209.805" height="71.928" viewBox="0 0 3544 1215">
  <defs>
    <style>
      .cls-1 {
        fill: #5d83ac;
      }

      .cls-2 {
        fill: #f0f0f0;
        fill-rule: evenodd;
      }
    </style>
  </defs>
  <g>
    <circle cx="603" cy="611" r="410" class="cls-1"/>
    <path d="M603.000,1123.000 C320.230,1123.000 91.000,893.770 91.000,611.000 C91.000,328.230 320.230,99.000 603.000,99.000 C885.770,99.000 1115.000,328.230 1115.000,611.000 C1115.000,893.770 885.770,1123.000 603.000,1123.000 ZM603.000,201.000 C376.563,201.000 193.000,384.563 193.000,611.000 C193.000,837.437 376.563,1021.000 603.000,1021.000 C829.437,1021.000 1013.000,837.437 1013.000,611.000 C1013.000,384.563 829.437,201.000 603.000,201.000 Z" class="cls-2"/>
    <path d="M916.642,763.000 L682.562,424.200 C674.345,412.256 664.362,402.273 652.602,394.240 C640.842,386.216 626.185,382.200 608.642,382.200 C590.345,382.200 575.225,386.496 563.282,395.080 C551.329,403.672 541.442,413.376 533.602,424.200 L293.362,763.000 L430.562,763.000 L606.402,514.360 L673.602,613.480 C679.945,622.440 686.569,632.056 693.482,642.320 C700.385,652.593 706.449,661.080 711.682,667.800 C702.722,667.056 692.169,666.680 680.042,666.680 C667.905,666.680 656.242,666.680 645.042,666.680 L550.962,666.680 L480.962,763.000 L916.642,763.000 Z" class="cls-2"/>
    <path d="M3365.836,496.059 L3231.997,496.059 L3231.997,773.260 L3116.077,773.260 L3116.077,496.059 L2940.237,496.059 L3015.277,398.620 L3440.877,398.620 L3365.836,496.059 ZM2787.363,398.620 L2903.283,398.620 L2903.283,773.260 L2787.363,773.260 L2787.363,398.620 ZM2453.045,779.420 C2361.205,779.420 2292.605,763.932 2247.245,732.940 C2201.885,701.956 2179.205,652.860 2179.205,585.660 C2179.205,518.836 2201.972,469.932 2247.525,438.940 C2293.068,407.956 2361.572,392.460 2453.045,392.460 C2544.132,392.460 2612.548,407.956 2658.285,438.940 C2704.012,469.932 2726.885,518.836 2726.885,585.660 C2726.885,652.860 2704.108,701.956 2658.565,732.940 C2613.012,763.932 2544.508,779.420 2453.045,779.420 ZM2603.125,536.660 C2597.525,524.156 2588.468,514.452 2575.965,507.540 C2563.452,500.636 2547.125,495.972 2526.965,493.540 C2506.805,491.116 2482.165,489.899 2453.045,489.899 C2423.925,489.899 2399.285,491.116 2379.125,493.540 C2358.965,495.972 2342.628,500.636 2330.125,507.540 C2317.612,514.452 2308.565,524.156 2302.965,536.660 C2297.365,549.172 2294.565,565.500 2294.565,585.660 C2294.565,605.820 2297.365,622.156 2302.965,634.660 C2308.565,647.172 2317.612,656.972 2330.125,664.060 C2342.628,671.156 2358.965,675.916 2379.125,678.340 C2399.285,680.772 2423.925,681.980 2453.045,681.980 C2482.165,681.980 2506.805,680.772 2526.965,678.340 C2547.125,675.916 2563.452,671.156 2575.965,664.060 C2588.468,656.972 2597.525,647.172 2603.125,634.660 C2608.725,622.156 2611.524,605.820 2611.524,585.660 C2611.524,565.500 2608.725,549.172 2603.125,536.660 ZM1999.998,496.059 L1999.998,773.260 L1884.078,773.260 L1884.078,496.059 L1708.238,496.059 L1783.278,398.620 L2208.878,398.620 L2133.838,496.059 L1999.998,496.059 ZM1444.483,779.420 C1399.306,779.420 1360.483,775.867 1328.003,768.779 C1295.522,761.692 1268.730,751.052 1247.643,736.860 C1226.546,722.676 1211.050,705.036 1201.162,683.940 C1191.266,662.852 1186.323,638.116 1186.323,609.740 L1186.323,398.620 L1301.683,398.620 L1301.683,609.740 C1301.683,623.556 1303.546,635.132 1307.283,644.460 C1311.010,653.796 1318.010,661.356 1328.283,667.140 C1338.546,672.932 1353.010,677.036 1371.683,679.459 C1390.346,681.892 1414.610,683.100 1444.483,683.100 C1466.883,683.100 1485.546,681.796 1500.482,679.180 C1515.410,676.572 1527.363,672.276 1536.322,666.300 C1545.283,660.332 1551.722,652.676 1555.643,643.340 C1559.563,634.012 1561.522,622.812 1561.522,609.740 L1561.522,398.620 L1678.003,398.620 L1678.003,609.740 C1678.003,722.859 1600.162,779.420 1444.483,779.420 Z" class="cls-2"/>
  </g>
</svg>